<svg version="1.1" viewBox="0.0 0.0 396.53805774278214 457.79002624671915" fill="none" stroke="none" stroke-linecap="square" stroke-miterlimit="10" xmlns:xlink="http://www.w3.org/1999/xlink" xmlns="http://www.w3.org/2000/svg"><clipPath id="p.0"><path d="m0 0l396.53806 0l0 457.79004l-396.53806 0l0 -457.79004z" clip-rule="nonzero"/></clipPath><g clip-path="url(#p.0)"><path fill="#000000" fill-opacity="0.0" d="m0 0l396.53806 0l0 457.79004l-396.53806 0z" fill-rule="evenodd"/><path fill="#094d92" d="m183.3898 86.2618l0 0c7.7312317 -4.4585037 20.26567 -4.4578323 27.996445 0.0014953613l99.50047 57.39466c3.7124634 2.141449 5.7979736 5.0457153 5.797821 8.073883c-1.5258789E-4 3.028183 -2.0859985 5.9322205 -5.7986755 8.073257l-99.53026 57.397675c-7.7312317 4.458496 -20.26567 4.4578247 -27.996445 -0.0015106201l-99.50047 -57.394653c-7.730774 -4.4593353 -7.730385 -11.68866 8.621216E-4 -16.147156z" fill-rule="evenodd"/><path stroke="#000000" stroke-width="8.0" stroke-linejoin="round" stroke-linecap="butt" d="m183.3898 86.2618l0 0c7.7312317 -4.4585037 20.26567 -4.4578323 27.996445 0.0014953613l99.50047 57.39466c3.7124634 2.141449 5.7979736 5.0457153 5.797821 8.073883c-1.5258789E-4 3.028183 -2.0859985 5.9322205 -5.7986755 8.073257l-99.53026 57.397675c-7.7312317 4.458496 -20.26567 4.4578247 -27.996445 -0.0015106201l-99.50047 -57.394653c-7.730774 -4.4593353 -7.730385 -11.68866 8.621216E-4 -16.147156z" fill-rule="evenodd"/><path fill="#094d92" d="m170.2546 34.669292l0 0c0 -14.994314 12.14119 -27.149607 27.118103 -27.149607l0 0c7.1921844 0 14.089767 2.8603969 19.1754 7.9519353c5.0856323 5.0915394 7.9427185 11.997147 7.9427185 19.197672l0 0c0 14.994312 -12.14119 27.149605 -27.118118 27.149605l0 0c-14.976913 0 -27.118103 -12.1552925 -27.118103 -27.149605z" fill-rule="evenodd"/><path stroke="#000000" stroke-width="8.0" stroke-linejoin="round" stroke-linecap="butt" d="m170.2546 34.669292l0 0c0 -14.994314 12.14119 -27.149607 27.118103 -27.149607l0 0c7.1921844 0 14.089767 2.8603969 19.1754 7.9519353c5.0856323 5.0915394 7.9427185 11.997147 7.9427185 19.197672l0 0c0 14.994312 -12.14119 27.149605 -27.118118 27.149605l0 0c-14.976913 0 -27.118103 -12.1552925 -27.118103 -27.149605z" fill-rule="evenodd"/><path fill="#68b684" d="m7.3622046 132.19685l0 0c0 -14.994316 12.141192 -27.149612 27.11811 -27.149612l0 0c7.192169 0 14.089767 2.8603973 19.1754 7.951935c5.0856323 5.091545 7.942711 11.997154 7.942711 19.197678l0 0c0 14.994308 -12.141193 27.149597 -27.11811 27.149597l0 0c-14.976919 0 -27.11811 -12.155289 -27.11811 -27.149597z" fill-rule="evenodd"/><path stroke="#000000" stroke-width="8.0" stroke-linejoin="round" stroke-linecap="butt" d="m7.3622046 132.19685l0 0c0 -14.994316 12.141192 -27.149612 27.11811 -27.149612l0 0c7.192169 0 14.089767 2.8603973 19.1754 7.951935c5.0856323 5.091545 7.942711 11.997154 7.942711 19.197678l0 0c0 14.994308 -12.141193 27.149597 -27.11811 27.149597l0 0c-14.976919 0 -27.11811 -12.155289 -27.11811 -27.149597z" fill-rule="evenodd"/><path fill="#68b684" d="m335.6273 135.7664l0 0c0 -14.994316 12.141205 -27.149605 27.118103 -27.149605l0 0c7.1921997 0 14.089783 2.8603973 19.175415 7.951935c5.0856323 5.0915375 7.9427185 11.997154 7.9427185 19.19767l0 0c0 14.994308 -12.141205 27.149612 -27.118134 27.149612l0 0c-14.976898 0 -27.118103 -12.155304 -27.118103 -27.149612z" fill-rule="evenodd"/><path stroke="#000000" stroke-width="8.0" stroke-linejoin="round" stroke-linecap="butt" d="m335.6273 135.7664l0 0c0 -14.994316 12.141205 -27.149605 27.118103 -27.149605l0 0c7.1921997 0 14.089783 2.8603973 19.175415 7.951935c5.0856323 5.0915375 7.9427185 11.997154 7.9427185 19.19767l0 0c0 14.994308 -12.141205 27.149612 -27.118134 27.149612l0 0c-14.976898 0 -27.118103 -12.155304 -27.118103 -27.149612z" fill-rule="evenodd"/><path fill="#68b684" d="m170.25328 422.3701l0 0c0 14.994293 12.14119 27.149597 27.118103 27.149597l0 0c7.1921844 0 14.089767 -2.860382 19.1754 -7.951935c5.0856323 -5.0915527 7.9427185 -11.997162 7.9427185 -19.197662l0 0c0 -14.994324 -12.14119 -27.149628 -27.118118 -27.149628l0 0c-14.976913 0 -27.118103 12.155304 -27.118103 27.149628z" fill-rule="evenodd"/><path stroke="#000000" stroke-width="8.0" stroke-linejoin="round" stroke-linecap="butt" d="m170.25328 422.3701l0 0c0 14.994293 12.14119 27.149597 27.118103 27.149597l0 0c7.1921844 0 14.089767 -2.860382 19.1754 -7.951935c5.0856323 -5.0915527 7.9427185 -11.997162 7.9427185 -19.197662l0 0c0 -14.994324 -12.14119 -27.149628 -27.118118 -27.149628l0 0c-14.976913 0 -27.118103 12.155304 -27.118103 27.149628z" fill-rule="evenodd"/><path fill="#094d92" d="m7.3608923 332.91864l0 0c0 14.994324 12.141192 27.149597 27.11811 27.149597l0 0c7.192169 0 14.089767 -2.860382 19.1754 -7.951935c5.0856323 -5.091522 7.942711 -11.997131 7.942711 -19.197662l0 0c0 -14.994324 -12.141193 -27.149597 -27.11811 -27.149597l0 0c-14.976919 0 -27.11811 12.155273 -27.11811 27.149597z" fill-rule="evenodd"/><path stroke="#000000" stroke-width="8.0" stroke-linejoin="round" stroke-linecap="butt" d="m7.3608923 332.91864l0 0c0 14.994324 12.141192 27.149597 27.11811 27.149597l0 0c7.192169 0 14.089767 -2.860382 19.1754 -7.951935c5.0856323 -5.091522 7.942711 -11.997131 7.942711 -19.197662l0 0c0 -14.994324 -12.141193 -27.149597 -27.11811 -27.149597l0 0c-14.976919 0 -27.11811 12.155273 -27.11811 27.149597z" fill-rule="evenodd"/><path fill="#094d92" d="m335.62598 332.91864l0 0c0 14.994324 12.141205 27.149597 27.118103 27.149597l0 0c7.1921997 0 14.089783 -2.860382 19.175415 -7.951935c5.0856323 -5.091522 7.9427185 -11.997131 7.9427185 -19.197662l0 0c0 -14.994324 -12.141205 -27.149597 -27.118134 -27.149597l0 0c-14.976898 0 -27.118103 12.155273 -27.118103 27.149597z" fill-rule="evenodd"/><path stroke="#000000" stroke-width="8.0" stroke-linejoin="round" stroke-linecap="butt" d="m335.62598 332.91864l0 0c0 14.994324 12.141205 27.149597 27.118103 27.149597l0 0c7.1921997 0 14.089783 -2.860382 19.175415 -7.951935c5.0856323 -5.091522 7.9427185 -11.997131 7.9427185 -19.197662l0 0c0 -14.994324 -12.141205 -27.149597 -27.118134 -27.149597l0 0c-14.976898 0 -27.118103 12.155273 -27.118103 27.149597z" fill-rule="evenodd"/><path fill="#000000" fill-opacity="0.0" d="m53.655716 112.999176l119.08661 -67.87401" fill-rule="evenodd"/><path stroke="#000000" stroke-width="8.0" stroke-linejoin="round" stroke-linecap="butt" d="m53.655716 112.999176l119.08661 -67.87401" fill-rule="evenodd"/><path fill="#000000" fill-opacity="0.0" d="m343.57 116.56873l-121.6693 -69.00787" fill-rule="evenodd"/><path stroke="#000000" stroke-width="8.0" stroke-linejoin="round" stroke-linecap="butt" d="m343.57 116.56873l-121.6693 -69.00787" fill-rule="evenodd"/><path fill="#000000" fill-opacity="0.0" d="m362.74408 162.9029l0 142.86615" fill-rule="evenodd"/><path stroke="#000000" stroke-width="8.0" stroke-linejoin="round" stroke-linecap="butt" d="m362.74408 162.9029l0 142.86615" fill-rule="evenodd"/><path fill="#000000" fill-opacity="0.0" d="m34.480316 159.34645l0 146.42522" fill-rule="evenodd"/><path stroke="#000000" stroke-width="8.0" stroke-linejoin="round" stroke-linecap="butt" d="m34.480316 159.34645l0 146.42522" fill-rule="evenodd"/><path fill="#000000" fill-opacity="0.0" d="m53.654404 352.1163l117.480316 61.606293" fill-rule="evenodd"/><path stroke="#000000" stroke-width="8.0" stroke-linejoin="round" stroke-linecap="butt" d="m53.654404 352.1163l117.480316 61.606293" fill-rule="evenodd"/><path fill="#000000" fill-opacity="0.0" d="m343.5687 352.1163l-119.49606 62.677155" fill-rule="evenodd"/><path stroke="#000000" stroke-width="8.0" stroke-linejoin="round" stroke-linecap="butt" d="m343.5687 352.1163l-119.49606 62.677155" fill-rule="evenodd"/><path fill="#000000" fill-opacity="0.0" d="m197.3727 61.818897l0.34646606 20.377956" fill-rule="evenodd"/><path stroke="#000000" stroke-width="8.0" stroke-linejoin="round" stroke-linecap="butt" d="m197.3727 61.818897l0.34646606 20.377956" fill-rule="evenodd"/><path fill="#000000" fill-opacity="0.0" d="m342.26773 319.1601l-16.944885 -10.48819" fill-rule="evenodd"/><path stroke="#000000" stroke-width="8.0" stroke-linejoin="round" stroke-linecap="butt" d="m342.26773 319.1601l-16.944885 -10.48819" fill-rule="evenodd"/><path fill="#000000" fill-opacity="0.0" d="m58.299213 316.07086l12.755901 -8.314941" fill-rule="evenodd"/><path stroke="#000000" stroke-width="8.0" stroke-linejoin="round" stroke-linecap="butt" d="m58.299213 316.07086l12.755901 -8.314941" fill-rule="evenodd"/><path fill="#094d92" d="m330.64047 293.95645l0 0c0 8.92453 -6.26239 19.782013 -13.987427 24.250885l-99.42674 57.51758c-3.7096863 2.1460266 -7.267441 2.5016785 -9.8905945 0.988678c-2.6231537 -1.51297 -4.096817 -4.77063 -4.096817 -9.056335l0 -114.89406c0 -8.924515 6.262375 -19.782013 13.9874115 -24.250885l99.42674 -57.517563c7.7250366 -4.468872 13.987427 -0.8568573 13.987427 8.067657z" fill-rule="evenodd"/><path stroke="#000000" stroke-width="8.0" stroke-linejoin="round" stroke-linecap="butt" d="m330.64047 293.95645l0 0c0 8.92453 -6.26239 19.782013 -13.987427 24.250885l-99.42674 57.51758c-3.7096863 2.1460266 -7.267441 2.5016785 -9.8905945 0.988678c-2.6231537 -1.51297 -4.096817 -4.77063 -4.096817 -9.056335l0 -114.89406c0 -8.924515 6.262375 -19.782013 13.9874115 -24.250885l99.42674 -57.517563c7.7250366 -4.468872 13.987427 -0.8568573 13.987427 8.067657z" fill-rule="evenodd"/><path fill="#094d92" d="m61.59716 293.95645l0 0c0 8.92453 6.2623825 19.782013 13.987419 24.250885l99.42674 57.51758c3.7096863 2.1460266 7.267441 2.5016785 9.8905945 0.988678c2.6231537 -1.51297 4.096817 -4.77063 4.096817 -9.056335l0 -114.89406c0 -8.924515 -6.262375 -19.782013 -13.9874115 -24.250885l-99.42674 -57.517563c-7.7250366 -4.468872 -13.987419 -0.8568573 -13.987419 8.067657z" fill-rule="evenodd"/><path stroke="#000000" stroke-width="8.0" stroke-linejoin="round" stroke-linecap="butt" d="m61.59716 293.95645l0 0c0 8.92453 6.2623825 19.782013 13.987419 24.250885l99.42674 57.51758c3.7096863 2.1460266 7.267441 2.5016785 9.8905945 0.988678c2.6231537 -1.51297 4.096817 -4.77063 4.096817 -9.056335l0 -114.89406c0 -8.924515 -6.262375 -19.782013 -13.9874115 -24.250885l-99.42674 -57.517563c-7.7250366 -4.468872 -13.987419 -0.8568573 -13.987419 8.067657z" fill-rule="evenodd"/><path fill="#000000" fill-opacity="0.0" d="m46.020996 64.47244l289.6063 0l0 174.51968l-289.6063 0z" fill-rule="evenodd"/><path fill="#68b684" d="m192.23076 148.74307l31.75 0l0 43.0q-5.0 2.6875 -12.046875 4.546875q-7.03125 1.859375 -15.09375 1.859375q-20.359375 0 -30.53125 -13.125q-10.171875 -13.125 -10.171875 -31.8125q0 -19.828125 11.515625 -32.75q11.53125 -12.9375 31.234375 -12.9375q3.84375 0 10.9375 1.28125q7.109375 1.28125 12.875 4.34375l-5.25 11.90625q-5.640625 -1.65625 -9.15625 -2.609375q-3.515625 -0.96875 -9.15625 -0.96875q-11.515625 0 -18.625 7.875q-7.09375 7.859375 -7.09375 23.734375q0 14.34375 5.8125 22.734375q5.828125 8.375 17.21875 8.375q4.234375 0 7.296875 -0.453125q3.078125 -0.453125 5.375 -0.953125l0 -21.25l-18.296875 0l1.40625 -12.796875z" fill-rule="nonzero"/><path fill="#000000" fill-opacity="0.0" d="m63.440945 186.09973l110.83464 0l0 174.51968l-110.83464 0z" fill-rule="evenodd"/><path fill="#68b684" d="m138.70201 281.12036l-24.578125 0l0 36.859375l-16.515625 0l0 -87.046875l49.28125 0l2.5625 13.0625l-35.328125 0l0 24.1875l22.140625 0l2.4375 12.9375z" fill-rule="nonzero"/><path fill="#000000" fill-opacity="0.0" d="m220.45538 186.09973l110.834656 0l0 174.51968l-110.834656 0z" fill-rule="evenodd"/><path fill="#68b684" d="m267.10583 317.97974l0 -33.921875l-29.187515 -50.9375l17.15625 -2.1875l20.218765 36.359375l21.12497 -36.359375l17.53125 0l-30.203094 53.765625l0 33.28125l-16.640625 0z" fill-rule="nonzero"/></g></svg>