<svg version="1.1" viewBox="0.0 0.0 289.84776902887137 403.0209973753281" fill="none" stroke="none" stroke-linecap="square" stroke-miterlimit="10" xmlns:xlink="http://www.w3.org/1999/xlink" xmlns="http://www.w3.org/2000/svg"><clipPath id="p.0"><path d="m0 0l289.84778 0l0 403.021l-289.84778 0l0 -403.021z" clip-rule="nonzero"/></clipPath><g clip-path="url(#p.0)"><path fill="#000000" fill-opacity="0.0" d="m0 0l289.84778 0l0 403.021l-289.84778 0z" fill-rule="evenodd"/><path fill="#000000" d="m42.0853 108.94751l0 0c0 -37.37812 19.986332 -71.832565 52.243687 -90.06291c32.257355 -18.23035 71.73946 -17.384695 103.205086 2.210516c31.465622 19.595213 49.992355 54.874557 48.42833 92.21917l-30.754715 -1.318039l0 0c1.0865021 -26.200005 -11.851349 -50.948357 -33.819763 -64.69263c-21.968414 -13.744263 -49.53119 -14.334625 -72.04956 -1.5432129c-22.51838 12.791412 -36.47014 36.963825 -36.47014 63.1871z" fill-rule="evenodd"/><path stroke="#000000" stroke-width="1.0" stroke-linejoin="round" stroke-linecap="butt" d="m42.0853 108.94751l0 0c0 -37.37812 19.986332 -71.832565 52.243687 -90.06291c32.257355 -18.23035 71.73946 -17.384695 103.205086 2.210516c31.465622 19.595213 49.992355 54.874557 48.42833 92.21917l-30.754715 -1.318039l0 0c1.0865021 -26.200005 -11.851349 -50.948357 -33.819763 -64.69263c-21.968414 -13.744263 -49.53119 -14.334625 -72.04956 -1.5432129c-22.51838 12.791412 -36.47014 36.963825 -36.47014 63.1871z" fill-rule="evenodd"/><path fill="#000000" d="m42.0853 101.318405l30.519688 0l0 78.3307l-30.519688 0z" fill-rule="evenodd"/><path stroke="#000000" stroke-width="1.0" stroke-linejoin="round" stroke-linecap="butt" d="m42.0853 101.318405l30.519688 0l0 78.3307l-30.519688 0z" fill-rule="evenodd"/><path fill="#000000" d="m215.52385 103.058685l30.519684 0l0 78.3307l-30.519684 0z" fill-rule="evenodd"/><path stroke="#000000" stroke-width="1.0" stroke-linejoin="round" stroke-linecap="butt" d="m215.52385 103.058685l30.519684 0l0 78.3307l-30.519684 0z" fill-rule="evenodd"/><path fill="#6294f1" d="m8.636483 263.42786l0 0c0 -72.85811 59.063164 -131.92126 131.92125 -131.92126l7.0236206 0l0 0c34.9877 0 68.54239 13.898804 93.282425 38.63884c24.740036 24.740036 38.63884 58.294724 38.63884 93.282425l0 0l0 0c0 72.85809 -59.063156 131.92123 -131.92126 131.92123l-7.0236206 0c-72.85809 0 -131.92125 -59.06314 -131.92125 -131.92123z" fill-rule="evenodd"/><path stroke="#000000" stroke-width="12.0" stroke-linejoin="round" stroke-linecap="butt" d="m8.636483 263.42786l0 0c0 -72.85811 59.063164 -131.92126 131.92125 -131.92126l7.0236206 0l0 0c34.9877 0 68.54239 13.898804 93.282425 38.63884c24.740036 24.740036 38.63884 58.294724 38.63884 93.282425l0 0l0 0c0 72.85809 -59.063156 131.92123 -131.92126 131.92123l-7.0236206 0c-72.85809 0 -131.92125 -59.06314 -131.92125 -131.92123z" fill-rule="evenodd"/><path fill="#6294f1" d="m255.88058 263.42783l0 0c0 62.11682 -50.05951 112.47244 -111.811035 112.47244l0 0c-29.654121 0 -58.093697 -11.849731 -79.06233 -32.942413c-20.968632 -21.092682 -32.748688 -49.7005 -32.748688 -79.53003l0 0c0 -62.11682 50.0595 -112.47244 111.81102 -112.47244l0 0c61.751526 0 111.811035 50.35562 111.811035 112.47244z" fill-rule="evenodd"/><path stroke="#2d47a7" stroke-width="8.0" stroke-linejoin="round" stroke-linecap="butt" stroke-dasharray="64.0,24.0" d="m255.88058 263.42783l0 0c0 62.11682 -50.05951 112.47244 -111.811035 112.47244l0 0c-29.654121 0 -58.093697 -11.849731 -79.06233 -32.942413c-20.968632 -21.092682 -32.748688 -49.7005 -32.748688 -79.53003l0 0c0 -62.11682 50.0595 -112.47244 111.81102 -112.47244l0 0c61.751526 0 111.811035 50.35562 111.811035 112.47244z" fill-rule="evenodd"/><path fill="#000000" d="m147.8885 285.7952c-2.5441284 1.7588806 -6.043579 4.0981445 -8.606781 6.842163c-2.563202 2.744049 -5.2232056 5.9310303 -6.772415 9.62207c-1.5492096 3.6910706 -3.0778503 7.7895813 -2.5228271 12.524353c0.5550232 4.734741 2.8692932 10.78244 5.8529663 15.884216c2.983673 5.1018066 7.840973 11.228424 12.049057 14.726532c4.2080994 3.498108 9.278061 5.3925476 13.199478 6.262146c3.9214172 0.8696289 7.345001 0.057037354 10.329041 -1.0444336c2.9840546 -1.101471 3.4818878 -2.0666199 7.575241 -5.5643616c4.093338 -3.4977417 11.954117 -11.498749 16.984833 -15.422058c5.030731 -3.9232788 9.54567 -5.624756 13.199478 -8.117706c3.6538086 -2.49292 6.045456 -3.4773254 8.723404 -6.839905c2.6779327 -3.3625488 5.6612396 -9.373596 7.3442535 -13.335419c1.6829987 -3.961792 3.059906 -7.1887817 2.7538147 -10.435425c-0.30610657 -3.2466125 0.26797485 -6.1839905 -4.590439 -9.044342c-4.858429 -2.860321 -15.799301 -7.228821 -24.560074 -8.117706c-8.760788 -0.8888855 -20.621094 1.3929749 -28.004593 2.7844543c-7.383499 1.391449 -12.470657 4.0184326 -16.296387 5.5643616c-3.8257446 1.5458984 -4.113907 1.9522095 -6.6580505 3.7110596z" fill-rule="evenodd"/><path fill="#000000" d="m143.75708 174.13515c-3.9019928 0.038894653 -8.07196 0.13519287 -12.280045 0.6955414c-4.2080917 0.56036377 -9.410736 1.6618347 -12.968491 2.6666412c-3.5577621 1.0047913 -5.96772 1.9707031 -8.378052 3.3621674c-2.4103394 1.3914642 -3.4250793 2.184433 -6.0839615 4.9866333c-2.6588745 2.802185 -7.5546722 7.865082 -9.869324 11.826508c-2.314659 3.961441 -3.5401917 8.811371 -4.0186005 11.942078c-0.47840118 3.1307068 0.07699585 4.6580963 1.1481705 6.842163c1.0711823 2.1840515 3.1174774 4.2329254 5.2788925 6.2621613c2.161415 2.0292358 5.527809 4.386612 7.689598 5.913254c2.161789 1.5266571 3.0430984 2.6284943 5.2811356 3.2466278c2.238037 0.61813354 1.9304352 1.4477386 8.147072 0.46218872c6.2166443 -0.98553467 16.642868 -4.8684235 29.152756 -6.3754425c12.509903 -1.507019 35.386215 -1.93219 45.90663 -2.666626c10.520401 -0.73443604 13.33252 0.8692322 17.21582 -1.7400055c3.8832855 -2.6092224 5.835037 -10.050278 6.083954 -13.915405c0.24891663 -3.8651428 -2.7541962 -6.6473236 -4.590439 -9.275436c-1.8362579 -2.628128 -4.1314697 -4.5606995 -6.427063 -6.493271c-2.2955933 -1.9325714 -3.9416046 -3.2277374 -7.3464966 -5.1021576c-3.404892 -1.8744202 -8.396362 -4.405121 -13.082855 -6.1443634c-4.686493 -1.7392273 -10.081619 -3.2858887 -15.036102 -4.2910767c-4.954468 -1.0051727 -10.386978 -1.3729553 -14.690735 -1.7399902c-4.303772 -0.3670349 -7.229889 -0.5010834 -11.131866 -0.46218872z" fill-rule="evenodd"/><path fill="#ffffff" d="m160.74367 193.38036c-6.7716675 1.8940582 -14.807358 4.1566467 -21.808502 7.30661c-7.0011597 3.1499634 -14.460144 7.3224792 -20.19838 11.59317c-5.7382355 4.2706757 -11.208862 9.62471 -14.231033 14.03096c-3.0221634 4.40625 -3.729683 8.251373 -3.9019852 12.406509c-0.17229462 4.1551514 0.8405762 8.388458 2.868187 12.524338c2.0276108 4.1358795 5.261322 8.464722 9.297485 12.290955c4.0361633 3.8262634 7.9758987 6.8403015 14.919487 10.666534c6.9435806 3.8262634 16.699669 8.406586 26.742043 12.290985c10.042374 3.8843994 23.3936 8.213226 33.512222 11.015411c10.118622 2.802185 20.370667 4.8699646 27.199509 5.7977295c6.8288574 0.9277649 10.579086 1.0444336 13.77356 -0.23110962c3.1944733 -1.2755432 3.729309 -2.5522156 5.393265 -7.4221497c1.6639404 -4.869934 4.169586 -13.2942505 4.590439 -21.797516c0.4208374 -8.503235 -0.13343811 -20.061646 -2.0653687 -29.221909c-1.9319305 -9.160263 -6.02565 -18.724564 -9.526215 -25.73967c-3.5005798 -7.015106 -7.7666016 -12.022125 -11.477219 -16.350967c-3.710617 -4.328827 -7.114029 -7.399872 -10.786514 -9.62207c-3.6725006 -2.2221985 -7.0019073 -3.1118164 -11.248489 -3.7110748c-4.246582 -0.5992584 -8.722275 -0.58000183 -14.231033 0.11553955c-5.5087433 0.6955414 -12.049805 2.1636658 -18.821457 4.057724z" fill-rule="evenodd"/><path fill="#ffffff" d="m112.42472 179.93182c2.4484558 0.44444275 4.878975 1.3518219 6.083954 2.8977203c1.2049866 1.5459137 2.0833054 3.5173798 1.1459274 6.377716c-0.9373703 2.8603363 -3.556633 7.402527 -6.7701645 10.784332c-3.2135315 3.3818207 -7.7097855 6.5884247 -12.511017 9.506531c-4.8012314 2.9181213 -11.437973 5.895508 -16.296394 8.002167c-4.8584137 2.1066437 -9.009323 3.4395752 -12.854118 4.6377106c-3.8448029 1.1981354 -8.187065 2.2614594 -10.21468 2.5510864c-2.0276108 0.28962708 -2.1995354 0.42367554 -1.9509888 -0.8133545c0.24854279 -1.23703 2.2563477 -4.46402 3.4422646 -6.6088104c1.1859207 -2.1447754 2.257843 -4.2113953 3.6732483 -6.259903c1.4154053 -2.0484924 2.1987915 -3.1125793 4.8191757 -6.031067c2.6203842 -2.9184875 6.9817123 -8.001404 10.90313 -11.479874c3.9214172 -3.478485 8.971573 -7.1687927 12.625389 -9.390991c3.6538086 -2.2221832 6.3134384 -3.2466278 9.297485 -3.9421692c2.984047 -0.6955414 6.158333 -0.6755371 8.606789 -0.23109436z" fill-rule="evenodd"/><path fill="#ffffff" d="m49.759636 257.04025c0.45934296 -3.8843842 1.512207 -10.068771 2.1819725 -13.450958c0.6697655 -3.382187 1.2629128 -5.006256 1.8366241 -6.842163c0.5737114 -1.835907 0.8981285 -4.154007 1.6056442 -4.1732635c0.7075157 -0.019256592 1.0708046 2.0673828 2.6394463 4.057724c1.5686417 1.9903412 3.5398178 3.999939 6.7724075 7.8843384c3.2325897 3.8843994 8.261818 9.353607 12.623146 15.422058c4.361328 6.068451 10.025185 15.249115 13.544815 20.988678c3.519638 5.739563 5.1439667 8.173218 7.5729904 13.4487c2.4290237 5.275482 5.4134445 12.638367 7.0011444 18.204224c1.5877075 5.565857 2.238037 9.277313 2.5250778 15.190979c0.28704834 5.9136353 -0.4776535 16.213104 -0.8028183 20.290863c-0.3251648 4.0777283 -0.19173431 3.6536865 -1.1481705 4.1755066c-0.95643616 0.5218506 -1.7596283 0.3277588 -4.590439 -1.0444336c-2.8308105 -1.3722229 -8.128761 -4.077362 -12.394409 -7.1888123c-4.2656403 -3.1114502 -9.144241 -7.2088013 -13.1994705 -11.479889c-4.0552216 -4.271057 -7.7845306 -8.967285 -11.131866 -14.146484c-3.347332 -5.179199 -6.675606 -11.36322 -8.952137 -16.92871c-2.2765312 -5.5654907 -3.597374 -10.705414 -4.7070503 -16.464233c-1.1096725 -5.7588196 -1.721508 -13.431335 -1.9509926 -18.088684c-0.22948456 -4.6573486 0.11474228 -5.971039 0.57408524 -9.855438z" fill-rule="evenodd"/><path fill="#ffffff" d="m201.83202 319.886c2.9649963 -1.2562866 10.098816 -4.0788574 13.771317 -5.45105c3.6725006 -1.3722229 6.3889465 -2.3184814 8.263687 -2.782196c1.8747406 -0.46368408 2.6596222 -0.48294067 2.984787 0c0.32518005 0.4829712 0.018325806 1.0618286 -1.0337982 2.8977356c-1.0521088 1.835907 -3.0027313 5.0832825 -5.278885 8.117706c-2.2761536 3.0343933 -4.877487 6.591034 -8.378052 10.088776c-3.5005798 3.4977417 -8.57016 7.882843 -12.625397 10.897614c-4.0552216 3.014801 -8.243866 5.6836853 -11.705948 7.1910706c-3.462082 1.5073853 -6.77092 1.969574 -9.066498 1.8532715c-2.2955933 -0.11630249 -3.7121277 -1.4303589 -4.707062 -2.5510864c-0.9949188 -1.1207275 -1.2625275 -2.665863 -1.2625275 -4.1732483c0 -1.5073853 0.114730835 -2.899994 1.2625275 -4.8710938c1.1477966 -1.9710693 3.4818878 -4.8491516 5.6242523 -6.9554443c2.1423492 -2.1062622 4.2077026 -3.6529236 7.2298737 -5.6821594c3.022171 -2.0292358 8.416183 -5.063263 10.903137 -6.4932556c2.4869537 -1.4299927 1.0536041 -0.8303528 4.018585 -2.0866394z" fill-rule="evenodd"/></g></svg>